<svg width="34" height="34" viewBox="0 0 34 34" fill="none" xmlns="http://www.w3.org/2000/svg">
<path d="M15.9273 0.881892C16.5518 0.372703 17.4482 0.372703 18.0726 0.881892L19.4189 1.97979C19.8427 2.32524 20.4068 2.44551 20.9345 2.30289L22.6072 1.85086C23.384 1.64095 24.2013 2.00524 24.5645 2.72315L25.3549 4.28588C25.601 4.7722 26.0655 5.11079 26.6038 5.19606L28.3229 5.46835C29.1149 5.59382 29.7111 6.25654 29.7522 7.05734L29.8427 8.82039C29.8705 9.36247 30.1561 9.85854 30.611 10.1549L32.0817 11.1135C32.7514 11.55 33.0257 12.3948 32.7399 13.1414L32.1072 14.7947C31.9135 15.3005 31.9731 15.8682 32.2672 16.3229L33.2278 17.807C33.6618 18.4778 33.5691 19.3603 33.0051 19.9264L31.7611 21.1751C31.3786 21.5591 31.2024 22.1026 31.2873 22.638L31.5641 24.3856C31.6892 25.1761 31.2447 25.9467 30.4976 26.2345L28.8666 26.8623C28.359 27.0578 27.9758 27.4845 27.8361 28.0102L27.3845 29.7101C27.1783 30.4866 26.4558 31.012 25.6536 30.969L23.921 30.8764C23.3757 30.8472 22.8497 31.082 22.5076 31.5074L21.415 32.8663C20.9102 33.4939 20.0338 33.6804 19.3171 33.3125L17.7751 32.521C17.2885 32.2714 16.7115 32.2714 16.2249 32.521L14.6828 33.3125C13.9662 33.6804 13.0898 33.4939 12.5851 32.8663L11.4924 31.5074C11.1503 31.082 10.6243 30.8472 10.0791 30.8764L8.34641 30.969C7.54415 31.012 6.82169 30.4866 6.61545 29.7101L6.1638 28.0102C6.02416 27.4845 5.641 27.0578 5.13338 26.8623L3.5024 26.2345C2.75523 25.9467 2.31076 25.1761 2.43598 24.3856L2.71273 22.638C2.79751 22.1026 2.62141 21.5591 2.23885 21.1751L0.994788 19.9264C0.430903 19.3603 0.338232 18.4778 0.772259 17.807L1.73268 16.3229C2.02691 15.8682 2.0864 15.3005 1.89282 14.7947L1.26004 13.1414C0.974268 12.3948 1.24849 11.55 1.91833 11.1135L3.38908 10.1549C3.84388 9.85854 4.12941 9.36247 4.15723 8.82039L4.24772 7.05734C4.28883 6.25654 4.88497 5.59382 5.67708 5.46835L7.39612 5.19606C7.93446 5.11079 8.39907 4.7722 8.64505 4.28588L9.4355 2.72315C9.79862 2.00524 10.6161 1.64095 11.3928 1.85086L13.0655 2.30289C13.5932 2.44551 14.1573 2.32524 14.581 1.97979L15.9273 0.881892Z" fill="url(#paint0_linear_317_139)"/>
<defs>
<linearGradient id="paint0_linear_317_139" x1="25.4857" y1="11.0368" x2="6.73475" y2="25.8874" gradientUnits="userSpaceOnUse">
<stop stop-color="white"/>
<stop offset="1" stop-color="#C9C9C9"/>
</linearGradient>
</defs>
</svg>
